<?xml version="1.0" encoding="UTF-8"?>
<svg version="1.1" xmlns="http://www.w3.org/2000/svg" width="248" height="203">
<path d="M0 0 C81.84 0 163.68 0 248 0 C248 66.99 248 133.98 248 203 C166.16 203 84.32 203 0 203 C0 136.01 0 69.02 0 0 Z " fill="#F4F4F4" transform="translate(0,0)"/>
<path d="M0 0 C10.65139627 3.48828564 16.91206179 15.71504948 22 25 C24.81221973 30.65625189 27.35332741 36.40736532 29.75 42.25 C30.70390672 45.11411929 30.70390672 45.11411929 33 46 C33 46.66 33 47.32 33 48 C34.10214844 48.34417969 34.10214844 48.34417969 35.2265625 48.6953125 C44.73954086 53.1704319 51.85094397 67.11870762 55.3203125 76.61328125 C60.95757606 95.07684998 59.03771104 113.92816304 50.47338867 131.05273438 C40.99288525 148.72297845 24.6631959 158.21671337 6 164 C2.59488916 164.78915183 -0.55684966 165.12980714 -4.04927063 165.14717102 C-5.5394445 165.15790398 -5.5394445 165.15790398 -7.0597229 165.16885376 C-8.13869843 165.17154266 -9.21767395 165.17423157 -10.3293457 165.17700195 C-11.47480362 165.18357315 -12.62026154 165.19014435 -13.8004303 165.19691467 C-17.59221467 165.21662559 -21.38395935 165.22830891 -25.17578125 165.23828125 C-27.12480882 165.24439454 -27.12480882 165.24439454 -29.11321068 165.25063133 C-35.28872915 165.26933935 -41.46422792 165.28390249 -47.6397689 165.2922433 C-54.72867418 165.30197936 -61.81726418 165.32820573 -68.90605861 165.36874419 C-74.40870185 165.39911223 -79.91125587 165.413732 -85.41398114 165.41702431 C-88.68869328 165.41935359 -91.96299578 165.43006961 -95.23763466 165.45348549 C-134.74577594 165.71830863 -134.74577594 165.71830863 -148.296875 152.8125 C-148.85890625 152.214375 -149.4209375 151.61625 -150 151 C-135 136 -135 136 -132.45703125 133.48828125 C-130.11643737 131.11791829 -127.88868357 128.68714914 -125.6875 126.1875 C-124.99011719 125.39730469 -124.29273437 124.60710937 -123.57421875 123.79296875 C-123.05472656 123.20128906 -122.53523438 122.60960937 -122 122 C-123.14082031 121.37544922 -123.14082031 121.37544922 -124.3046875 120.73828125 C-129.65896001 117.28516348 -133.89756634 110.95689538 -136 105 C-136.56124053 99.05797725 -136.50133076 93.50292768 -134 88 C-133.505 86.865625 -133.01 85.73125 -132.5 84.5625 C-129.26245666 79.03528723 -122.98140527 74.99380176 -117 73 C-107.83073788 72.06934278 -99.89242185 73.78131283 -92.5 79.4375 C-90.05759236 81.94096783 -88.95182649 83.66860728 -88 87 C-87.51789063 86.566875 -87.03578125 86.13375 -86.5390625 85.6875 C-85.90742187 85.130625 -85.27578125 84.57375 -84.625 84 C-83.99851562 83.443125 -83.37203125 82.88625 -82.7265625 82.3125 C-81 81 -81 81 -79 81 C-78.62875 80.13375 -78.62875 80.13375 -78.25 79.25 C-76.81700012 76.67060021 -75.21575324 74.93878408 -73 73 C-72.34 73 -71.68 73 -71 73 C-70.62875 72.13375 -70.62875 72.13375 -70.25 71.25 C-68.81700012 68.67060021 -67.21575324 66.93878408 -65 65 C-64.34 65 -63.68 65 -63 65 C-62.731875 64.360625 -62.46375 63.72125 -62.1875 63.0625 C-61 61 -61 61 -58 60 C-64.98286817 47.2358611 -79.37695133 39.12962885 -92.9375 35 C-94.28716116 34.64886864 -95.6396829 34.30727163 -97 34 C-90.53932485 24.86594203 -79.91310707 18.99701636 -69 17 C-55.5491018 15.64300183 -42.85155502 16.13859761 -31.5625 24.375 C-29.04827602 26.29008526 -29.04827602 26.29008526 -25.75 26 C-22.92305601 25.29286172 -22.92305601 25.29286172 -21.875 23.1875 C-21.58625 22.465625 -21.2975 21.74375 -21 21 C-19 18.75 -19 18.75 -17 17 C-16.34 17 -15.68 17 -15 17 C-14.62875 16.13375 -14.62875 16.13375 -14.25 15.25 C-12.81700012 12.67060021 -11.21575324 10.93878408 -9 9 C-8.34 9 -7.68 9 -7 9 C-6.6596875 8.1646875 -6.6596875 8.1646875 -6.3125 7.3125 C-4.64103234 4.36753316 -2.44723648 2.31843456 0 0 Z " fill="#4385F5" transform="translate(183,31)"/>
<path d="M0 0 C2.73238428 1.92278894 5.3949104 3.90826629 8 6 C4.99063602 12.47083898 0.08925677 17.09259405 -5.3359375 21.59765625 C-8.60998994 24.35677556 -11.47209923 27.33236079 -14.125 30.6875 C-16 33 -16 33 -19 35 C-23.6512222 34.51092299 -27.85175016 31.59506098 -31.9296875 29.47265625 C-42.76879321 24.27374677 -57.12336433 24.03634064 -68.625 27.5625 C-76.27875144 30.64373804 -83.31793991 35.0022699 -89 41 C-87.824375 41.33 -86.64875 41.66 -85.4375 42 C-74.60439601 45.70159353 -65.44902884 51.05363743 -57.0625 58.8125 C-56.45317627 59.37565918 -55.84385254 59.93881836 -55.21606445 60.51904297 C-53.74178876 61.94471146 -52.36160426 63.46635945 -51 65 C-51 68 -51 68 -52.57421875 69.61328125 C-53.27160156 70.17402344 -53.96898438 70.73476562 -54.6875 71.3125 C-58.23652795 74.27624966 -61.04375939 77.43735106 -64 81 C-65.72644303 82.57022197 -67.50165585 84.06387507 -69.296875 85.5546875 C-72.29785494 88.10139066 -75.00787352 90.93438267 -77.6875 93.8125 C-79 95 -79 95 -81 95 C-81.350625 94.29875 -81.70125 93.5975 -82.0625 92.875 C-85.79211338 87.34073498 -92.47377263 83.30524547 -99 82 C-106.36981385 81.27211715 -111.77999211 81.89593086 -118 86 C-118.9075 86.598125 -119.815 87.19625 -120.75 87.8125 C-126.36110364 93.26773965 -128.08374883 99.58785372 -128.375 107.25 C-128.33496057 113.17583507 -126.49225689 117.27807519 -123 122 C-122.44957031 122.53625 -121.89914063 123.0725 -121.33203125 123.625 C-120 125 -120 125 -120 127 C-117.03 127.99 -117.03 127.99 -114 129 C-117.58025805 134.11646807 -121.13837046 138.03132282 -126 142 C-127.80365277 143.95906956 -129.53039615 145.97301834 -131.26171875 147.99609375 C-133.71748352 150.82712145 -136.25488842 153.44640783 -139 156 C-139.66 156 -140.32 156 -141 156 C-141.33 156.99 -141.66 157.98 -142 159 C-148.79021925 156.67192483 -152.21903756 152.97635999 -156 147 C-157.11375 145.6696875 -157.11375 145.6696875 -158.25 144.3125 C-160 142 -160 142 -160 139 C-160.66 139 -161.32 139 -162 139 C-162.79874865 136.85679273 -163.58861858 134.71027584 -164.375 132.5625 C-164.81585938 131.36753906 -165.25671875 130.17257813 -165.7109375 128.94140625 C-168.23454988 121.55076009 -169.36784706 114.49143495 -169.3125 106.6875 C-169.30758545 105.85790771 -169.3026709 105.02831543 -169.29760742 104.17358398 C-169.16989308 97.44140104 -168.24533224 91.37530078 -166 85 C-165.47212891 83.49373047 -165.47212891 83.49373047 -164.93359375 81.95703125 C-162.27801308 75.04200436 -158.91668846 68.59784177 -154 63 C-153.34 63 -152.68 63 -152 63 C-152 62.34 -152 61.68 -152 61 C-150.3603279 59.63360658 -148.68889872 58.3050581 -147 57 C-146.278125 56.2575 -145.55625 55.515 -144.8125 54.75 C-143 53 -143 53 -141 53 C-140.835 51.845 -140.67 50.69 -140.5 49.5 C-135.8561883 28.6522496 -119.53593024 9.34071384 -102 -2 C-92.47856463 -7.70221193 -82.78253508 -11.40705704 -72 -14 C-70.74832031 -14.35578125 -69.49664062 -14.7115625 -68.20703125 -15.078125 C-44.95257812 -20.84318747 -19.44446948 -12.45319956 0 0 Z " fill="#F7BA05" transform="translate(176,23)"/>
<path d="M0 0 C11.74713017 8.48880209 18.46282516 19.99226885 21.8125 34 C22.28317032 38.70670316 22.20067953 43.39923354 22.125 48.125 C22.7540625 48.19976562 23.383125 48.27453125 24.03125 48.3515625 C32.1040964 49.59166842 36.93823863 52.67985257 42.4375 58.625 C42.994375 59.45 43.55125 60.275 44.125 61.125 C44.7025 61.95 45.28 62.775 45.875 63.625 C48.46129527 70.86662675 48.27733047 78.54928898 45.0625 85.5625 C41.05462169 92.47805473 36.24095569 96.13056493 28.68848991 98.51942444 C24.10930468 99.60116954 19.57423815 99.55853608 14.88891602 99.54492188 C13.80151123 99.55339142 12.71410645 99.56186096 11.59375 99.57058716 C8.02201436 99.59386421 4.45071179 99.59498157 0.87890625 99.59375 C-1.61776398 99.60085653 -4.11443258 99.60855625 -6.61109924 99.61682129 C-11.83526148 99.63024434 -17.05927264 99.63184429 -22.28344727 99.62597656 C-27.63455663 99.62007071 -32.98517104 99.63417194 -38.33618164 99.66699219 C-44.81759376 99.7062045 -51.29858134 99.72078423 -57.7801075 99.71620178 C-60.24197276 99.71788999 -62.70384633 99.72750351 -65.16564751 99.74534607 C-68.61409443 99.76759296 -72.06107763 99.75780342 -75.50952148 99.74023438 C-77.01933342 99.76012924 -77.01933342 99.76012924 -78.55964661 99.78042603 C-85.57138155 99.69783026 -91.04813647 98.12177533 -96.875 94.125 C-99.25401497 91.63098012 -101.09672247 89.07118918 -102.875 86.125 C-103.49375 85.196875 -104.1125 84.26875 -104.75 83.3125 C-107.05062473 76.79406328 -106.73897612 69.42574747 -103.875 63.125 C-103.38 61.990625 -102.885 60.85625 -102.375 59.6875 C-99.13745666 54.16028723 -92.85640527 50.11880176 -86.875 48.125 C-77.70573788 47.19434278 -69.76742185 48.90631283 -62.375 54.5625 C-59.93259236 57.06596783 -58.82682649 58.79360728 -57.875 62.125 C-57.39289063 61.691875 -56.91078125 61.25875 -56.4140625 60.8125 C-55.78242187 60.255625 -55.15078125 59.69875 -54.5 59.125 C-53.87351563 58.568125 -53.24703125 58.01125 -52.6015625 57.4375 C-50.875 56.125 -50.875 56.125 -48.875 56.125 C-48.6275 55.5475 -48.38 54.97 -48.125 54.375 C-46.69200012 51.79560021 -45.09075324 50.06378408 -42.875 48.125 C-42.215 48.125 -41.555 48.125 -40.875 48.125 C-40.50375 47.25875 -40.50375 47.25875 -40.125 46.375 C-38.69200012 43.79560021 -37.09075324 42.06378408 -34.875 40.125 C-34.215 40.125 -33.555 40.125 -32.875 40.125 C-32.606875 39.485625 -32.33875 38.84625 -32.0625 38.1875 C-30.875 36.125 -30.875 36.125 -27.875 35.125 C-34.85786817 22.3608611 -49.25195133 14.25462885 -62.8125 10.125 C-64.16216116 9.77386864 -65.5146829 9.43227163 -66.875 9.125 C-51.70456941 -12.32285015 -20.61083436 -12.82145549 0 0 Z " fill="#F4F4F3" transform="translate(152.875,55.875)"/>
<path d="M0 0 C1.84722572 1.37891497 3.67144861 2.77562271 5.46875 4.21875 C2.45938602 10.68958898 -2.44199323 15.31134405 -7.8671875 19.81640625 C-11.14123994 22.57552556 -14.00334923 25.55111079 -16.65625 28.90625 C-18.53125 31.21875 -18.53125 31.21875 -21.53125 33.21875 C-26.1824722 32.72967299 -30.38300016 29.81381098 -34.4609375 27.69140625 C-45.30004321 22.49249677 -59.65461433 22.25509064 -71.15625 25.78125 C-77.86340657 28.48714149 -85.16688372 32.10797697 -89.59765625 37.9375 C-94.23265875 41.5418162 -98.85740619 40.57707041 -104.53125 40.28125 C-113.03002403 40.03787019 -120.00656722 40.09939145 -127.98046875 43.24609375 C-130.81598675 44.32732496 -133.53227858 44.80161635 -136.53125 45.21875 C-136.53125 45.87875 -136.53125 46.53875 -136.53125 47.21875 C-137.19125 47.21875 -137.85125 47.21875 -138.53125 47.21875 C-138.53125 47.87875 -138.53125 48.53875 -138.53125 49.21875 C-141.00625 49.71375 -141.00625 49.71375 -143.53125 50.21875 C-139.23195417 28.67748653 -124.25637514 9.67512675 -106.33251953 -2.421875 C-73.01127538 -24.10010378 -32.47217362 -22.85078884 0 0 Z " fill="#E94334" transform="translate(178.53125,24.78125)"/>
<path d="M0 0 C1.67601133 0.28262152 3.34209906 0.62549585 5 1 C6.96201796 1.11074125 8.92693345 1.17535628 10.8918457 1.20532227 C12.05267166 1.22526749 13.21349762 1.24521271 14.40950012 1.26576233 C15.65237289 1.28247482 16.89524567 1.29918732 18.17578125 1.31640625 C20.09622505 1.3475779 20.09622505 1.3475779 22.0554657 1.37937927 C25.44689729 1.43437572 28.83838735 1.48388312 32.22991943 1.53222656 C35.6956497 1.58260616 39.16129689 1.63815584 42.62695312 1.69335938 C49.41790442 1.80115225 56.2089048 1.90034921 63 2 C63 15.53 63 29.06 63 43 C55.45957844 43.0844077 47.92091608 43.16447879 40.38043213 43.20700073 C36.86734333 43.22792811 33.35465473 43.25578125 29.84179688 43.30175781 C-12.61540474 43.84247168 -12.61540474 43.84247168 -26.296875 30.8125 C-26.85890625 30.214375 -27.4209375 29.61625 -28 29 C-13 14 -13 14 -10.4375 11.4921875 C-7.415731 8.4026224 -4.75519897 5.07204387 -2.0625 1.6953125 C-1.381875 1.13585937 -0.70125 0.57640625 0 0 Z " fill="#34A852" transform="translate(61,153)"/>
<path d="M0 0 C1.98 0 3.96 0 6 0 C6 1.98 6 3.96 6 6 C7.98 6 9.96 6 12 6 C12 9.3 12 12.6 12 16 C11.01 16.495 11.01 16.495 10 17 C9.34 16.67 8.68 16.34 8 16 C8.66 16.556875 9.32 17.11375 10 17.6875 C12 20 12 20 12.25 22.75 C12.1675 23.4925 12.085 24.235 12 25 C10.35 25.33 8.7 25.66 7 26 C6.67 27.65 6.34 29.3 6 31 C3.03 31 0.06 31 -3 31 C-2.67 30.01 -2.34 29.02 -2 28 C-2.33 27.34 -2.66 26.68 -3 26 C-3.99 25.67 -4.98 25.34 -6 25 C-6.33 26.98 -6.66 28.96 -7 31 C-8.66611905 31.042721 -10.33382885 31.04063832 -12 31 C-13 30 -13 30 -13.0625 27.4375 C-13.041875 26.633125 -13.02125 25.82875 -13 25 C-14.98 25 -16.96 25 -19 25 C-19 26.98 -19 28.96 -19 31 C-17.35 31 -15.7 31 -14 31 C-13.67 32.98 -13.34 34.96 -13 37 C-15.625 37.4375 -15.625 37.4375 -19 37 C-21.54752507 35.00921882 -23.42043863 32.82106164 -25 30 C-24.875 27.0625 -24.875 27.0625 -24 25 C-23.38125 24.938125 -22.7625 24.87625 -22.125 24.8125 C-21.42375 24.544375 -20.7225 24.27625 -20 24 C-19.31867549 22.33927151 -18.65257873 20.672233 -18 19 C-15.9375 17.875 -15.9375 17.875 -14 17 C-13.67 16.01 -13.34 15.02 -13 14 C-11.824375 13.319375 -11.824375 13.319375 -10.625 12.625 C-7.62145672 10.76566368 -6.74061251 9.00651252 -5 6 C-4.01 5.67 -3.02 5.34 -2 5 C-0.78130071 2.49552484 -0.78130071 2.49552484 0 0 Z " fill="#F5F5F5" transform="translate(75,112)"/>
<path d="M0 0 C2.99332739 0.9977758 3.94766315 1.7522025 6 4 C5.17757812 4.29132812 4.35515625 4.58265625 3.5078125 4.8828125 C-12.76894628 10.85972854 -25.89138351 20.66291905 -38 33 C-37.125 28.25 -37.125 28.25 -36 26 C-37.32 25.34 -38.64 24.68 -40 24 C-39 23 -39 23 -36.4375 22.9375 C-35.2309375 22.9684375 -35.2309375 22.9684375 -34 23 C-34 21.35 -34 19.7 -34 18 C-33.05125 17.7525 -32.1025 17.505 -31.125 17.25 C-27.91306809 16.3142923 -27.91306809 16.3142923 -26.625 13.875 C-26.41875 13.25625 -26.2125 12.6375 -26 12 C-26 12.66 -26 13.32 -26 14 C-25.34 13.67 -24.68 13.34 -24 13 C-24 12.34 -24 11.68 -24 11 C-23.01 10.67 -22.02 10.34 -21 10 C-21.33 8.68 -21.66 7.36 -22 6 C-21.67 6.66 -21.34 7.32 -21 8 C-19.35 8 -17.7 8 -16 8 C-16 8.99 -16 9.98 -16 11 C-15.01 11 -14.02 11 -13 11 C-13 10.01 -13 9.02 -13 8 C-12.01 8 -11.02 8 -10 8 C-9.67 7.01 -9.34 6.02 -9 5 C-8.2575 4.9175 -7.515 4.835 -6.75 4.75 C-3.48778646 3.8603054 -2.19045122 2.51496251 0 0 Z " fill="#EEECE9" transform="translate(90,8)"/>
<path d="M0 0 C3.28118542 4.92177813 2.64642354 10.25401301 2 16 C0.28873092 21.12698944 -2.36447329 26.9579356 -7 30 C-9.75 29.75 -9.75 29.75 -12 29 C-11.67 27.02 -11.34 25.04 -11 23 C-8.69 23.33 -6.38 23.66 -4 24 C-4.66 22.02 -5.32 20.04 -6 18 C-7.65 17.67 -9.3 17.34 -11 17 C-11.33 15.35 -11.66 13.7 -12 12 C-11.21625 11.773125 -10.4325 11.54625 -9.625 11.3125 C-6.31827043 9.65913521 -6.28226023 8.33387661 -5 5 C-2.875 4.1875 -2.875 4.1875 -1 4 C-0.67 2.68 -0.34 1.36 0 0 Z " fill="#E7EBEE" transform="translate(198,120)"/>
<path d="M0 0 C0.99 0.33 1.98 0.66 3 1 C2.67 1.66 2.34 2.32 2 3 C1.01 3 0.02 3 -1 3 C-1 4.65 -1 6.3 -1 8 C-0.34 8 0.32 8 1 8 C1 8.66 1 9.32 1 10 C2.98 9.34 4.96 8.68 7 8 C6.34 9.32 5.68 10.64 5 12 C5.66 12.33 6.32 12.66 7 13 C6.34 13 5.68 13 5 13 C5 13.66 5 14.32 5 15 C6.98 15 8.96 15 11 15 C10.67 14.01 10.34 13.02 10 12 C11.25 10.5 11.25 10.5 13 9 C14.32 9 15.64 9 17 9 C16.67 10.32 16.34 11.64 16 13 C15.34 13 14.68 13 14 13 C12.92474806 15.65228812 11.90543849 18.28368454 11 21 C3.67272727 15.70909091 3.67272727 15.70909091 0.6875 12.5625 C-3.39792765 8.66709224 -8.19055744 5.92272604 -13 3 C-12.67 2.34 -12.34 1.68 -12 1 C-10.02 1.495 -10.02 1.495 -8 2 C-8 2.66 -8 3.32 -8 4 C-3.70111387 2.48134786 -3.70111387 2.48134786 0 0 Z " fill="#EEECEC" transform="translate(181,16)"/>
<path d="M0 0 C0.66 0 1.32 0 2 0 C2 0.66 2 1.32 2 2 C3.32 1.34 4.64 0.68 6 0 C6.33 2.31 6.66 4.62 7 7 C8.32 7 9.64 7 11 7 C11.66 7 12.32 7 13 7 C12.67 8.65 12.34 10.3 12 12 C12.66 12 13.32 12 14 12 C14 12.66 14 13.32 14 14 C15.65 13.67 17.3 13.34 19 13 C19 15 19 17 19 19 C19.66 19 20.32 19 21 19 C21.33 20.98 21.66 22.96 22 25 C21.34 25.33 20.68 25.66 20 26 C19.60167969 25.45730469 19.20335937 24.91460937 18.79296875 24.35546875 C18.26316406 23.64003906 17.73335937 22.92460938 17.1875 22.1875 C16.66542969 21.47980469 16.14335937 20.77210937 15.60546875 20.04296875 C14.06893533 17.99125475 14.06893533 17.99125475 12.30078125 16.36328125 C11 15 11 15 11 13 C8.525 12.01 8.525 12.01 6 11 C6 10.34 6 9.68 6 9 C5.38125 8.814375 4.7625 8.62875 4.125 8.4375 C0.94397134 6.28562767 0.80548053 3.62466237 0 0 Z " fill="#E9ECEE" transform="translate(210,68)"/>
<path d="M0 0 C1.74216797 0.59748047 1.74216797 0.59748047 3.51953125 1.20703125 C4.39996094 1.53058594 5.28039062 1.85414063 6.1875 2.1875 C5.1975 2.6825 5.1975 2.6825 4.1875 3.1875 C4.1875 4.5075 4.1875 5.8275 4.1875 7.1875 C2.2075 7.1875 0.2275 7.1875 -1.8125 7.1875 C-2.1425 5.5375 -2.4725 3.8875 -2.8125 2.1875 C-4.4625 1.8575 -6.1125 1.5275 -7.8125 1.1875 C-7.8125 3.1675 -7.8125 5.1475 -7.8125 7.1875 C-6.1625 7.1875 -4.5125 7.1875 -2.8125 7.1875 C-2.4825 8.5075 -2.1525 9.8275 -1.8125 11.1875 C-4.1225 11.1875 -6.4325 11.1875 -8.8125 11.1875 C-9.1425 10.1975 -9.4725 9.2075 -9.8125 8.1875 C-10.8025 7.5275 -11.7925 6.8675 -12.8125 6.1875 C-12.625 3.875 -12.625 3.875 -11.8125 1.1875 C-7.52001102 -2.41061576 -5.10218975 -1.80380446 0 0 Z " fill="#E9EDEB" transform="translate(51.8125,191.8125)"/>
<path d="M0 0 C1.98 0 3.96 0 6 0 C6.66 1.98 7.32 3.96 8 6 C8.99 6 9.98 6 11 6 C11.33 4.02 11.66 2.04 12 0 C13.65 0.33 15.3 0.66 17 1 C15.02 6.28 13.04 11.56 11 17 C10.67 15.68 10.34 14.36 10 13 C9.34 13 8.68 13 8 13 C7.608125 12.030625 7.21625 11.06125 6.8125 10.0625 C5.32405113 6.77823609 5.32405113 6.77823609 2.3125 6.125 C1.1678125 6.063125 1.1678125 6.063125 0 6 C0 4.02 0 2.04 0 0 Z " fill="#EEEDEA" transform="translate(25,56)"/>
<path d="M0 0 C0.66 0.33 1.32 0.66 2 1 C0.83791965 8.32110622 -1.559255 13.09297127 -6 19 C-6.6496875 18.0409375 -6.6496875 18.0409375 -7.3125 17.0625 C-8.91239177 14.73253997 -8.91239177 14.73253997 -12 14 C-11.75 11.625 -11.75 11.625 -11 9 C-9.0625 7.9375 -9.0625 7.9375 -7 7 C-6.505 5.9790625 -6.505 5.9790625 -6 4.9375 C-5.67 4.298125 -5.34 3.65875 -5 3 C-2.9375 2.375 -2.9375 2.375 -1 2 C-0.67 1.34 -0.34 0.68 0 0 Z " fill="#EEECEC" transform="translate(50,35)"/>
<path d="M0 0 C-0.33 0.66 -0.66 1.32 -1 2 C-1.99 2 -2.98 2 -4 2 C-4 2.99 -4 3.98 -4 5 C-5.65 5 -7.3 5 -9 5 C-9 4.34 -9 3.68 -9 3 C-13.29 3.99 -17.58 4.98 -22 6 C-22 6.99 -22 7.98 -22 9 C-23.98 9 -25.96 9 -28 9 C-28 8.01 -28 7.02 -28 6 C-29.65 5.67 -31.3 5.34 -33 5 C-33 4.34 -33 3.68 -33 3 C-32.37351563 3.09539062 -31.74703125 3.19078125 -31.1015625 3.2890625 C-30.28429687 3.39992187 -29.46703125 3.51078125 -28.625 3.625 C-27.81289062 3.74101562 -27.00078125 3.85703125 -26.1640625 3.9765625 C-25.44992188 3.98429688 -24.73578125 3.99203125 -24 4 C-23.34 3.34 -22.68 2.68 -22 2 C-19.5046054 1.55759516 -17.07628687 1.20945248 -14.5625 0.9375 C-1.71729573 -0.53295385 -1.71729573 -0.53295385 0 0 Z " fill="#EDEFEE" transform="translate(196,194)"/>
<path d="M0 0 C3 3.625 3 3.625 3 7 C0.69 7 -1.62 7 -4 7 C-3.979375 7.804375 -3.95875 8.60875 -3.9375 9.4375 C-4 12 -4 12 -5 13 C-7.33944736 12.71269945 -9.6739143 12.38063221 -12 12 C-12.33 10.02 -12.66 8.04 -13 6 C-12.22914063 5.65066406 -11.45828125 5.30132812 -10.6640625 4.94140625 C-9.66117188 4.48636719 -8.65828125 4.03132812 -7.625 3.5625 C-6.62726563 3.11003906 -5.62953125 2.65757812 -4.6015625 2.19140625 C-3.05692417 1.48402684 -1.51955078 0.75977539 0 0 Z " fill="#E4E9ED" transform="translate(209,186)"/>
<path d="M0 0 C0 0.99 0 1.98 0 3 C1.98 3 3.96 3 6 3 C6 4.32 6 5.64 6 7 C-0.27 7 -6.54 7 -13 7 C-13 5.68 -13 4.36 -13 3 C-11.58603098 2.49242138 -10.16868271 1.99425075 -8.75 1.5 C-7.96109375 1.2215625 -7.1721875 0.943125 -6.359375 0.65625 C-4 0 -4 0 0 0 Z " fill="#F0EFEF" transform="translate(81,196)"/>
<path d="M0 0 C2.42130331 3.63195496 2.21022785 5.38349348 2.125 9.6875 C2.10695312 10.86699219 2.08890625 12.04648438 2.0703125 13.26171875 C2.03550781 14.61716797 2.03550781 14.61716797 2 16 C0 13 0 13 -1 10 C-2.65 10.33 -4.3 10.66 -6 11 C-5.67 9.02 -5.34 7.04 -5 5 C-3.68 4.67 -2.36 4.34 -1 4 C-0.67 2.68 -0.34 1.36 0 0 Z M-8 10 C-7.34 10.33 -6.68 10.66 -6 11 C-5.59270772 13.32156597 -5.25561323 15.6568787 -5 18 C-7.97 17.505 -7.97 17.505 -11 17 C-11.33 15.35 -11.66 13.7 -12 12 C-10.125 10.9375 -10.125 10.9375 -8 10 Z " fill="#EDEEED" transform="translate(198,120)"/>
<path d="M0 0 C1.32 0.99 2.64 1.98 4 3 C3.34 4.98 2.68 6.96 2 9 C0.824375 9.0928125 0.824375 9.0928125 -0.375 9.1875 C-1.24125 9.455625 -2.1075 9.72375 -3 10 C-4.37466625 12.47636012 -4.37466625 12.47636012 -5 15 C-5.99 14.67 -6.98 14.34 -8 14 C-7.34 13.01 -6.68 12.02 -6 11 C-6.66 11 -7.32 11 -8 11 C-8.33 11.99 -8.66 12.98 -9 14 C-9.33 14 -9.66 14 -10 14 C-10.33 11.69 -10.66 9.38 -11 7 C-8.69 7.66 -6.38 8.32 -4 9 C-3.8453125 7.329375 -3.8453125 7.329375 -3.6875 5.625 C-3.460625 4.42875 -3.23375 3.2325 -3 2 C-2.01 1.34 -1.02 0.68 0 0 Z " fill="#EBEDEA" transform="translate(35,184)"/>
<path d="M0 0 C1.74991334 -0.02715383 3.49994945 -0.04646551 5.25 -0.0625 C6.71179688 -0.07990234 6.71179688 -0.07990234 8.203125 -0.09765625 C10.65758678 -0.01195577 12.66168914 0.29293934 15 1 C15 3.31 15 5.62 15 8 C13.576875 8.0928125 13.576875 8.0928125 12.125 8.1875 C11.09375 8.455625 10.0625 8.72375 9 9 C7.84478498 11.47130918 7.84478498 11.47130918 7 14 C4.875 14.8125 4.875 14.8125 3 15 C2.67 13.02 2.34 11.04 2 9 C4.97 8.01 7.94 7.02 11 6 C10.67 5.01 10.34 4.02 10 3 C6.7 2.34 3.4 1.68 0 1 C0 0.67 0 0.34 0 0 Z " fill="#EEECE4" transform="translate(66,104)"/>
<path d="M0 0 C1.98 0 3.96 0 6 0 C6 1.98 6 3.96 6 6 C7.65 6 9.3 6 11 6 C11 6.33 11 6.66 11 7 C8.93918639 7.50690584 6.87626474 8.00524619 4.8125 8.5 C3.66394531 8.7784375 2.51539062 9.056875 1.33203125 9.34375 C-1.56818829 9.91495385 -4.06096385 10.13283779 -7 10 C-5.06745228 7.9754262 -3.36841312 6.57894208 -1 5 C-0.27034634 2.43717258 -0.27034634 2.43717258 0 0 Z " fill="#EEF0EF" transform="translate(106,0)"/>
<path d="M0 0 C2.97 0.495 2.97 0.495 6 1 C6 3.31 6 5.62 6 8 C4.02 8 2.04 8 0 8 C0.061875 9.051875 0.061875 9.051875 0.125 10.125 C-0.01668332 13.38371628 -0.86734686 15.9559947 -2 19 C-2.33 19 -2.66 19 -3 19 C-3.2233411 12.0267945 -3.18031711 6.36063423 0 0 Z " fill="#F2EBE2" transform="translate(50,117)"/>
<path d="M0 0 C1.67542976 0.28604898 3.34385343 0.61781233 5 1 C5 2.65 5 4.3 5 6 C3.35 6.33 1.7 6.66 0 7 C-0.33 8.65 -0.66 10.3 -1 12 C-2.98 12 -4.96 12 -7 12 C-7.042721 10.33388095 -7.04063832 8.66617115 -7 7 C-6 6 -6 6 -3.4375 5.9375 C-2.2309375 5.9684375 -2.2309375 5.9684375 -1 6 C-1.020625 5.195625 -1.04125 4.39125 -1.0625 3.5625 C-1 1 -1 1 0 0 Z " fill="#FCFCFC" transform="translate(82,131)"/>
<path d="M0 0 C5.19822672 1.36144033 8.09543873 3.46730171 12 7 C11.67 8.65 11.34 10.3 11 12 C9.35 11.67 7.7 11.34 6 11 C6 9.35 6 7.7 6 6 C4.02 6 2.04 6 0 6 C-1.125 2.25 -1.125 2.25 0 0 Z " fill="#F8F5F0" transform="translate(81,106)"/>
<path d="M0 0 C0.33 1.98 0.66 3.96 1 6 C-0.65 6 -2.3 6 -4 6 C-3.67 5.34 -3.34 4.68 -3 4 C-3.66 3.34 -4.32 2.68 -5 2 C-4.67 1.34 -4.34 0.68 -4 0 C-5.98 0 -7.96 0 -10 0 C-10 1.98 -10 3.96 -10 6 C-11.98 6 -13.96 6 -16 6 C-16 4.02 -16 2.04 -16 0 C-10.68833136 -1.32791716 -5.24118425 -1.74706142 0 0 Z " fill="#FAFBFC" transform="translate(184,106)"/>
<path d="M0 0 C0.99 0 1.98 0 3 0 C3.33 0.99 3.66 1.98 4 3 C0.25 6 0.25 6 -2 6 C-2 7.65 -2 9.3 -2 11 C-3.98 11 -5.96 11 -8 11 C-8.33 8.69 -8.66 6.38 -9 4 C-8.071875 4.0825 -7.14375 4.165 -6.1875 4.25 C-5.135625 4.1675 -4.08375 4.085 -3 4 C-1.29467677 2.05990478 -1.29467677 2.05990478 0 0 Z " fill="#EDEDEC" transform="translate(120,101)"/>
<path d="M0 0 C1.65 0 3.3 0 5 0 C5.226875 0.804375 5.45375 1.60875 5.6875 2.4375 C6.120625 3.283125 6.55375 4.12875 7 5 C9.54775306 5.89386164 9.54775306 5.89386164 12 6 C12 7.32 12 8.64 12 10 C10.02 10 8.04 10 6 10 C5.67 9.01 5.34 8.02 5 7 C3.35 6.67 1.7 6.34 0 6 C0 4.02 0 2.04 0 0 Z " fill="#FCFCFC" transform="translate(44,193)"/>
<path d="M0 0 C0.99 0.33 1.98 0.66 3 1 C3 1.99 3 2.98 3 4 C3.58007812 4.01417969 4.16015625 4.02835938 4.7578125 4.04296875 C10.85755082 4.41539502 13.67989602 5.67989602 18 10 C13.19320375 11.60226542 9.42760904 9.09367559 5 7 C2.88456092 5.76564753 0.97519036 4.45540342 -1 3 C-0.67 2.01 -0.34 1.02 0 0 Z " fill="#3CA758" transform="translate(37,182)"/>
<path d="M0 0 C0 1.98 0 3.96 0 6 C-0.61875 6.061875 -1.2375 6.12375 -1.875 6.1875 C-4.27761141 6.828919 -4.27761141 6.828919 -5.25 9.5625 C-5.4975 10.366875 -5.745 11.17125 -6 12 C-6.66 12 -7.32 12 -8 12 C-8.2120464 7.54702569 -7.72718916 4.12606298 -6 0 C-3.50907189 -1.24546405 -2.58919267 -0.7767578 0 0 Z " fill="#FAFAF8" transform="translate(56,125)"/>
<path d="M0 0 C1.98 0.99 1.98 0.99 4 2 C4.99 2 5.98 2 7 2 C7 4.31 7 6.62 7 9 C5.02 9 3.04 9 1 9 C1 10.65 1 12.3 1 14 C0.67 14 0.34 14 0 14 C0 9.38 0 4.76 0 0 Z " fill="#DEE5F2" transform="translate(241,122)"/>
<path d="M0 0 C0.99 0.66 1.98 1.32 3 2 C2.34 2 1.68 2 1 2 C1 3.98 1 5.96 1 8 C-2 9 -5 10 -8 11 C-8.33 10.01 -8.66 9.02 -9 8 C-8.01 8 -7.02 8 -6 8 C-5.9071875 7.13375 -5.9071875 7.13375 -5.8125 6.25 C-4.67972699 3.11309013 -2.65802405 1.90832496 0 0 Z " fill="#EEEEEE" transform="translate(24,48)"/>
<path d="M0 0 C2.31 0 4.62 0 7 0 C7 1.98 7 3.96 7 6 C7.99 6.33 8.98 6.66 10 7 C8.35 7.33 6.7 7.66 5 8 C5 7.34 5 6.68 5 6 C1.7018576 6.8509288 1.7018576 6.8509288 -1 10 C-0.67 6.7 -0.34 3.4 0 0 Z " fill="#EEEEEE" transform="translate(217,0)"/>
<path d="M0 0 C1.65 0.33 3.3 0.66 5 1 C4.071875 1.804375 4.071875 1.804375 3.125 2.625 C0.7217098 5.31103023 -0.06022153 7.55414562 -1 11 C-2.32 11 -3.64 11 -5 11 C-5.66 11.66 -6.32 12.32 -7 13 C-6.50769231 6.47692308 -6.50769231 6.47692308 -3.9375 4.0625 C-3.298125 3.711875 -2.65875 3.36125 -2 3 C-1.34 3.33 -0.68 3.66 0 4 C0 2.68 0 1.36 0 0 Z " fill="#EEECED" transform="translate(56,127)"/>
<path d="M0 0 C0.99 1.32 1.98 2.64 3 4 C2.67 4.66 2.34 5.32 2 6 C0.68 6 -0.64 6 -2 6 C-2 6.99 -2 7.98 -2 9 C-5.91211733 7.84414715 -8.8745041 6.64465038 -12 4 C-11.34 4 -10.68 4 -10 4 C-10 3.01 -10 2.02 -10 1 C-8 2 -8 2 -7 4 C-5.68 4 -4.36 4 -3 4 C-2.67 3.01 -2.34 2.02 -2 1 C-1.34 0.67 -0.68 0.34 0 0 Z " fill="#EEECE3" transform="translate(108,63)"/>
<path d="M0 0 C0.99 0.33 1.98 0.66 3 1 C2 3 2 3 0 5 C-0.64767793 7.57061311 -0.64767793 7.57061311 -1 10 C-2.65 10 -4.3 10 -6 10 C-6.33 8.35 -6.66 6.7 -7 5 C-6.360625 4.896875 -5.72125 4.79375 -5.0625 4.6875 C-4.381875 4.460625 -3.70125 4.23375 -3 4 C-2.67 3.01 -2.34 2.02 -2 1 C-1.34 0.67 -0.68 0.34 0 0 Z " fill="#F9FAFA" transform="translate(32,183)"/>
<path d="M0 0 C0.99 0.33 1.98 0.66 3 1 C2.67 1.99 2.34 2.98 2 4 C3.1446875 4.185625 3.1446875 4.185625 4.3125 4.375 C7 5 7 5 10 7 C10.33 7.99 10.66 8.98 11 10 C11.66 10.33 12.32 10.66 13 11 C12.67 11.99 12.34 12.98 12 14 C7.21224044 10.46386286 2.53548584 6.85516296 -2 3 C-1.34 2.01 -0.68 1.02 0 0 Z " fill="#FBF3EB" transform="translate(110,71)"/>
<path d="M0 0 C0.33 0 0.66 0 1 0 C1.04898437 1.08796875 1.09796875 2.1759375 1.1484375 3.296875 C1.57773352 11.99086305 2.30157533 20.4419184 4 29 C3.01 29.66 2.02 30.32 1 31 C-0.18135474 24.51650193 -0.11322974 18.13785493 -0.0625 11.5625 C-0.05798828 10.44939453 -0.05347656 9.33628906 -0.04882812 8.18945312 C-0.03711193 5.45957899 -0.02070699 2.72981826 0 0 Z " fill="#F4EAD8" transform="translate(6,122)"/>
<path d="M0 0 C0 3 0 6 0 9 C-0.7425 9.12375 -1.485 9.2475 -2.25 9.375 C-4.96572378 9.87755542 -4.96572378 9.87755542 -7.125 11.0625 C-9 12 -9 12 -12 12 C-10.71034824 10.62437146 -9.37310707 9.29233607 -8 8 C-7.34 8 -6.68 8 -6 8 C-5.7525 7.4225 -5.505 6.845 -5.25 6.25 C-3.83316683 3.6997003 -2.12372463 1.98214299 0 0 Z " fill="#F9F3E0" transform="translate(118,96)"/>
<path d="M0 0 C3 3.625 3 3.625 3 7 C2.01 7 1.02 7 0 7 C0.020625 7.804375 0.04125 8.60875 0.0625 9.4375 C0 12 0 12 -1 13 C-2.66617115 13.04063832 -4.33388095 13.042721 -6 13 C-5.67 11.02 -5.34 9.04 -5 7 C-3.68 6.67 -2.36 6.34 -1 6 C-0.67 4.02 -0.34 2.04 0 0 Z " fill="#E6EBEC" transform="translate(168,74)"/>
<path d="M0 0 C-0.66 1.98 -1.32 3.96 -2 6 C-4.31 5.67 -6.62 5.34 -9 5 C-8.67 3.35 -8.34 1.7 -8 0 C-2.25 -1.125 -2.25 -1.125 0 0 Z " fill="#EFEFED" transform="translate(206,193)"/>
<path d="M0 0 C0.33 0 0.66 0 1 0 C1.33 2.97 1.66 5.94 2 9 C0.02 9.66 -1.96 10.32 -4 11 C-4.33 8.69 -4.66 6.38 -5 4 C-4.0409375 3.8453125 -4.0409375 3.8453125 -3.0625 3.6875 C-2.381875 3.460625 -1.70125 3.23375 -1 3 C-0.67 2.01 -0.34 1.02 0 0 Z " fill="#F9FAFA" transform="translate(197,127)"/>
<path d="M0 0 C0.33 1.65 0.66 3.3 1 5 C-2.22791555 7.1519437 -3.28400809 7.20086443 -7 7 C-7 5.02 -7 3.04 -7 1 C-2.25 0 -2.25 0 0 0 Z " fill="#FAFAFA" transform="translate(119,136)"/>
<path d="M0 0 C2.475 0.99 2.475 0.99 5 2 C3.36587557 3.70840281 2.13093906 4.93453047 0 6 C0 6.66 0 7.32 0 8 C-2.375 8.625 -2.375 8.625 -5 9 C-5.66 8.34 -6.32 7.68 -7 7 C-4.69 4.69 -2.38 2.38 0 0 Z " fill="#4C80E6" transform="translate(183,31)"/>
<path d="M0 0 C0.33 3.3 0.66 6.6 1 10 C0.34 9.34 -0.32 8.68 -1 8 C-4.08347826 7.83318891 -4.08347826 7.83318891 -7 8 C-5.52631579 2.35087719 -5.52631579 2.35087719 -2.9375 0.625 C-1 0 -1 0 0 0 Z " fill="#EEEEEE" transform="translate(25,24)"/>
<path d="M0 0 C2.31 0 4.62 0 7 0 C7.042721 1.66611905 7.04063832 3.33382885 7 5 C6 6 6 6 2.9375 6.0625 C1.4834375 6.0315625 1.4834375 6.0315625 0 6 C0 4.02 0 2.04 0 0 Z " fill="#FCFCFC" transform="translate(74,0)"/>
<path d="M0 0 C1.65 0 3.3 0 5 0 C5.33 0.99 5.66 1.98 6 3 C8.31 3 10.62 3 13 3 C12.67 4.32 12.34 5.64 12 7 C10.02 7 8.04 7 6 7 C5.67 6.01 5.34 5.02 5 4 C2.49552484 2.78130071 2.49552484 2.78130071 0 2 C0 1.34 0 0.68 0 0 Z " fill="#FBFBF8" transform="translate(118,196)"/>
<path d="M0 0 C3.125 -0.1875 3.125 -0.1875 6 0 C6 1.98 6 3.96 6 6 C3.69 6 1.38 6 -1 6 C-1.33 5.01 -1.66 4.02 -2 3 C-1.34 2.01 -0.68 1.02 0 0 Z " fill="#FBFBFB" transform="translate(242,193)"/>
<path d="M0 0 C0.886875 0.391875 1.77375 0.78375 2.6875 1.1875 C2.0275 2.8375 1.3675 4.4875 0.6875 6.1875 C-0.9625 6.1875 -2.6125 6.1875 -4.3125 6.1875 C-4.3125 5.1975 -4.3125 4.2075 -4.3125 3.1875 C-5.6325 2.8575 -6.9525 2.5275 -8.3125 2.1875 C-5.09279771 -0.27462528 -4.04623082 -0.99247171 0 0 Z " fill="#F1EBE3" transform="translate(66.3125,105.8125)"/>
<path d="M0 0 C0.66 0.66 1.32 1.32 2 2 C1.34 3.65 0.68 5.3 0 7 C-1.65 7 -3.3 7 -5 7 C-5.33 5.35 -5.66 3.7 -6 2 C-4.02 1.34 -2.04 0.68 0 0 Z " fill="#FBFBFB" transform="translate(229,24)"/>
<path d="M0 0 C1.98 0 3.96 0 6 0 C6.66 2.31 7.32 4.62 8 7 C5.36 6.67 2.72 6.34 0 6 C0 4.02 0 2.04 0 0 Z " fill="#FAFBFA" transform="translate(112,0)"/>
<path d="M0 0 C0.66 0.66 1.32 1.32 2 2 C1.01 3.98 0.02 5.96 -1 8 C-2.65 8 -4.3 8 -6 8 C-6 6.02 -6 4.04 -6 2 C-4.02 1.34 -2.04 0.68 0 0 Z " fill="#EEEEEE" transform="translate(6,191)"/>
<path d="M0 0 C1.4540625 0.0309375 1.4540625 0.0309375 2.9375 0.0625 C2.980221 1.72861905 2.97813832 3.39632885 2.9375 5.0625 C1.9375 6.0625 1.9375 6.0625 -0.625 6.125 C-1.8315625 6.0940625 -1.8315625 6.0940625 -3.0625 6.0625 C-3.44468767 4.40635343 -3.77645102 2.73792976 -4.0625 1.0625 C-3.0625 0.0625 -3.0625 0.0625 0 0 Z " fill="#FCFCFC" transform="translate(78.0625,111.9375)"/>
<path d="M0 0 C0.99 0.66 1.98 1.32 3 2 C3.1875 5.125 3.1875 5.125 3 8 C1.02 8 -0.96 8 -3 8 C-3.1875 5.125 -3.1875 5.125 -3 2 C-2.01 1.34 -1.02 0.68 0 0 Z " fill="#FBFBFB" transform="translate(28,48)"/>
<path d="M0 0 C0.78375 0.04125 1.5675 0.0825 2.375 0.125 C2.375 2.105 2.375 4.085 2.375 6.125 C0.725 6.455 -0.925 6.785 -2.625 7.125 C-3.285 5.475 -3.945 3.825 -4.625 2.125 C-2.625 0.125 -2.625 0.125 0 0 Z " fill="#FAFBFA" transform="translate(245.625,117.875)"/>
<path d="M0 0 C1.98 0 3.96 0 6 0 C6.38218767 1.65614657 6.71395102 3.32457024 7 5 C6 6 6 6 2.9375 6.0625 C1.4834375 6.0315625 1.4834375 6.0315625 0 6 C0 4.02 0 2.04 0 0 Z " fill="#FBFCFB" transform="translate(0,112)"/>
<path d="M0 0 C0.33 0 0.66 0 1 0 C1 3.63 1 7.26 1 11 C1.99 11.33 2.98 11.66 4 12 C0.7 12.33 -2.6 12.66 -6 13 C-5.67 10.69 -5.34 8.38 -5 6 C-3.68 6.66 -2.36 7.32 -1 8 C-0.67 5.36 -0.34 2.72 0 0 Z " fill="#D5DEF1" transform="translate(174,93)"/>
<path d="M0 0 C1.8874394 3.27156162 2.60106002 6.24996419 3 10 C2.67 10.99 2.34 11.98 2 13 C1.01 12.67 0.02 12.34 -1 12 C-0.67 10.68 -0.34 9.36 0 8 C-0.99 8 -1.98 8 -3 8 C-1.125 2.25 -1.125 2.25 0 0 Z " fill="#E44A3C" transform="translate(44,52)"/>
<path d="M0 0 C1.98 0 3.96 0 6 0 C6 1.65 6 3.3 6 5 C4.68 5.33 3.36 5.66 2 6 C2 6.66 2 7.32 2 8 C1.34 8 0.68 8 0 8 C0 5.36 0 2.72 0 0 Z " fill="#FCFCFC" transform="translate(137,0)"/>
<path d="M0 0 C1.67542976 0.28604898 3.34385343 0.61781233 5 1 C5 2.65 5 4.3 5 6 C2.69 6 0.38 6 -2 6 C-1.125 1.125 -1.125 1.125 0 0 Z " fill="#FCFCFC" transform="translate(132,106)"/>
<path d="M0 0 C1.98 0 3.96 0 6 0 C6.20086443 3.71599191 6.1519437 4.77208445 4 8 C3.34 8 2.68 8 2 8 C-0.1519437 4.77208445 -0.20086443 3.71599191 0 0 Z " fill="#FCFCFC" transform="translate(25,0)"/>
<path d="M0 0 C0 1.98 0 3.96 0 6 C-1.65 6.33 -3.3 6.66 -5 7 C-5.33 4.69 -5.66 2.38 -6 0 C-2.25 -1.125 -2.25 -1.125 0 0 Z " fill="#FBFCFB" transform="translate(248,131)"/>
<path d="M0 0 C0.04254356 1.99954746 0.04080783 4.00041636 0 6 C-1 7 -1 7 -3.5625 7.0625 C-4.7690625 7.0315625 -4.7690625 7.0315625 -6 7 C-6 5.02 -6 3.04 -6 1 C-3.92446352 0.4465236 -2.15634036 0 0 0 Z " fill="#FBFBFB" transform="translate(168,74)"/>
<path d="M0 0 C1.32 0 2.64 0 4 0 C5.125 3.75 5.125 3.75 4 6 C3.34 6 2.68 6 2 6 C1.67 6.66 1.34 7.32 1 8 C0.01 7.34 -0.98 6.68 -2 6 C-1.125 1.125 -1.125 1.125 0 0 Z " fill="#FAFAFA" transform="translate(219,69)"/>
<path d="M0 0 C2.31 0 4.62 0 7 0 C6.67 1.98 6.34 3.96 6 6 C4.02 6 2.04 6 0 6 C0 4.02 0 2.04 0 0 Z " fill="#FDFDFD" transform="translate(0,0)"/>
<path d="M0 0 C2.97 0.495 2.97 0.495 6 1 C5.67 2.65 5.34 4.3 5 6 C3.0625 6.5625 3.0625 6.5625 1 7 C0 6 0 6 -0.0625 2.9375 C-0.041875 1.968125 -0.02125 0.99875 0 0 Z " fill="#FCFCFC" transform="translate(0,87)"/>
<path d="M0 0 C1.65 0 3.3 0 5 0 C5 1.98 5 3.96 5 6 C2.69 5.67 0.38 5.34 -2 5 C-1.34 3.35 -0.68 1.7 0 0 Z " fill="#FDFDFD" transform="translate(20,193)"/>
<path d="M0 0 C0 2.31 0 4.62 0 7 C-1.98 7 -3.96 7 -6 7 C-6 5.35 -6 3.7 -6 2 C-2.25 0 -2.25 0 0 0 Z " fill="#EFEFEF" transform="translate(248,149)"/>
<path d="M0 0 C1.2065625 0.0309375 1.2065625 0.0309375 2.4375 0.0625 C3.5625 3.8125 3.5625 3.8125 2.4375 6.0625 C0.7875 6.0625 -0.8625 6.0625 -2.5625 6.0625 C-2.94468767 4.40635343 -3.27645102 2.73792976 -3.5625 1.0625 C-2.5625 0.0625 -2.5625 0.0625 0 0 Z " fill="#FCFCFC" transform="translate(65.5625,136.9375)"/>
<path d="M0 0 C0.61875 0.350625 1.2375 0.70125 1.875 1.0625 C2.57625 1.371875 3.2775 1.68125 4 2 C4.66 1.67 5.32 1.34 6 1 C6.33 2.65 6.66 4.3 7 6 C2.25 7 2.25 7 0 7 C0 4.69 0 2.38 0 0 Z " fill="#EEEEEE" transform="translate(0,93)"/>
<path d="M0 0 C1.98 0 3.96 0 6 0 C6.042721 1.66611905 6.04063832 3.33382885 6 5 C5 6 5 6 2.4375 6.0625 C1.2309375 6.0315625 1.2309375 6.0315625 0 6 C0 4.02 0 2.04 0 0 Z " fill="#FDFDFD" transform="translate(0,75)"/>
<path d="M0 0 C1.98 0 3.96 0 6 0 C5.67 1.65 5.34 3.3 5 5 C3.35 5.33 1.7 5.66 0 6 C-1.125 2.25 -1.125 2.25 0 0 Z " fill="#FCFCFC" transform="translate(224,0)"/>
<path d="M0 0 C0 0.66 0 1.32 0 2 C-1.65 2 -3.3 2 -5 2 C-5 3.32 -5 4.64 -5 6 C-6.98 6 -8.96 6 -11 6 C-10.8125 4.125 -10.8125 4.125 -10 2 C-6.62176024 0.12320013 -3.82367701 -0.21849583 0 0 Z " fill="#EEEEEE" transform="translate(154,197)"/>
<path d="M0 0 C2.14210449 1.76956458 2.96060573 2.87575652 3.8125 5.5625 C3.874375 6.366875 3.93625 7.17125 4 8 C3.34 8.66 2.68 9.32 2 10 C1.01 10 0.02 10 -1 10 C-2.15837626 5.94568308 -1.83691257 3.78187881 0 0 Z " fill="#EBEDF0" transform="translate(237,152)"/>
<path d="M0 0 C1.67542976 0.28604898 3.34385343 0.61781233 5 1 C4.67 2.98 4.34 4.96 4 7 C2.68 7 1.36 7 0 7 C-0.38133299 5.0085944 -0.71325582 3.00720923 -1 1 C-0.67 0.67 -0.34 0.34 0 0 Z " fill="#FCFCFC" transform="translate(82,143)"/>
<path d="M0 0 C1.65 0 3.3 0 5 0 C5.33 1.98 5.66 3.96 6 6 C4.02 6 2.04 6 0 6 C0 4.02 0 2.04 0 0 Z " fill="#FCFCFA" transform="translate(56,143)"/>
<path d="M0 0 C2.00720923 0.28674418 4.0085944 0.61866701 6 1 C6 2.32 6 3.64 6 5 C4.02 5.33 2.04 5.66 0 6 C-0.38218767 4.34385343 -0.71395102 2.67542976 -1 1 C-0.67 0.67 -0.34 0.34 0 0 Z " fill="#FDFDFD" transform="translate(88,137)"/>
<path d="M0 0 C0.33 1.32 0.66 2.64 1 4 C1.66 4 2.32 4 3 4 C3 2.68 3 1.36 3 0 C3.99 0.33 4.98 0.66 6 1 C6 2.65 6 4.3 6 6 C3.36 6.66 0.72 7.32 -2 8 C-2 7.01 -2 6.02 -2 5 C-1.34 5 -0.68 5 0 5 C0 3.35 0 1.7 0 0 Z " fill="#E9E9ED" transform="translate(242,112)"/>
<path d="M0 0 C1.04449911 3.13349732 0.93423645 3.98968256 0 7 C-1.98 7 -3.96 7 -6 7 C-5.67 5.02 -5.34 3.04 -5 1 C-3.35 0.67 -1.7 0.34 0 0 Z " fill="#EDEDED" transform="translate(223,49)"/>
<path d="M0 0 C-1.32 0.33 -2.64 0.66 -4 1 C-4 2.32 -4 3.64 -4 5 C-6.31 5 -8.62 5 -11 5 C-11 3.68 -11 2.36 -11 1 C-7.27569643 0.30710631 -3.78916254 -0.11144596 0 0 Z " fill="#F0EDEE" transform="translate(67,198)"/>
<path d="M0 0 C1.2065625 0.0309375 1.2065625 0.0309375 2.4375 0.0625 C2.4375 1.7125 2.4375 3.3625 2.4375 5.0625 C0.7875 5.3925 -0.8625 5.7225 -2.5625 6.0625 C-2.94468767 4.40635343 -3.27645102 2.73792976 -3.5625 1.0625 C-2.5625 0.0625 -2.5625 0.0625 0 0 Z " fill="#FDFDFD" transform="translate(140.5625,136.9375)"/>
<path d="M0 0 C0 1.98 0 3.96 0 6 C-3.75 7.125 -3.75 7.125 -6 6 C-5.67 4.35 -5.34 2.7 -5 1 C-1.125 0 -1.125 0 0 0 Z " fill="#EDEDED" transform="translate(149,136)"/>
<path d="M0 0 C1.98 0 3.96 0 6 0 C5.67 1.98 5.34 3.96 5 6 C3.35 6 1.7 6 0 6 C0 4.02 0 2.04 0 0 Z " fill="#EDEDEB" transform="translate(174,106)"/>
<path d="M0 0 C1.2065625 0.0309375 1.2065625 0.0309375 2.4375 0.0625 C2.4375 1.7125 2.4375 3.3625 2.4375 5.0625 C0.7875 5.3925 -0.8625 5.7225 -2.5625 6.0625 C-2.94468767 4.40635343 -3.27645102 2.73792976 -3.5625 1.0625 C-2.5625 0.0625 -2.5625 0.0625 0 0 Z " fill="#FCFCFC" transform="translate(22.5625,55.9375)"/>
<path d="M0 0 C1.65 0.33 3.3 0.66 5 1 C4.67 2.65 4.34 4.3 4 6 C2.35 5.67 0.7 5.34 -1 5 C-0.67 3.35 -0.34 1.7 0 0 Z " fill="#FDFDFD" transform="translate(218,193)"/>
<path d="M0 0 C0.99 0 1.98 0 3 0 C3.33 1.98 3.66 3.96 4 6 C0.25 7.125 0.25 7.125 -2 6 C-1.125 1.125 -1.125 1.125 0 0 Z " fill="#FCFCFC" transform="translate(108,118)"/>
<path d="M0 0 C1.9375 0.3125 1.9375 0.3125 4 1 C4.33 1.99 4.66 2.98 5 4 C4.34 4 3.68 4 3 4 C3 4.66 3 5.32 3 6 C2.01 6.33 1.02 6.66 0 7 C-0.99 5.68 -1.98 4.36 -3 3 C-2.34 3 -1.68 3 -1 3 C-0.67 2.01 -0.34 1.02 0 0 Z " fill="#FABD19" transform="translate(90,105)"/>
<path d="M0 0 C1.65 0.33 3.3 0.66 5 1 C4.67 2.65 4.34 4.3 4 6 C2.35 5.67 0.7 5.34 -1 5 C-0.67 3.35 -0.34 1.7 0 0 Z " fill="#FDFDFD" transform="translate(26,25)"/>
<path d="M0 0 C1.65 0 3.3 0 5 0 C5.33 0.99 5.66 1.98 6 3 C6.99 3.66 7.98 4.32 9 5 C5.36804504 6.21065165 3.93468371 5.62784815 0.3125 4.5625 C-0.68136719 4.27503906 -1.67523438 3.98757812 -2.69921875 3.69140625 C-3.45847656 3.46324219 -4.21773437 3.23507812 -5 3 C-5 2.67 -5 2.34 -5 2 C-3.35 1.67 -1.7 1.34 0 1 C0 0.67 0 0.34 0 0 Z " fill="#EEE2DA" transform="translate(149,7)"/>
<path d="M0 0 C0.66 0.33 1.32 0.66 2 1 C2 2.98 2 4.96 2 7 C0.02 7 -1.96 7 -4 7 C-3.39816251 4.97954558 -2.72693904 2.97888961 -2 1 C-1.34 0.67 -0.68 0.34 0 0 Z " fill="#EDEDED" transform="translate(246,186)"/>
<path d="M0 0 C0.99 0.33 1.98 0.66 3 1 C3.3721042 2.32303717 3.70630173 3.65737935 4 5 C4.66 5.33 5.32 5.66 6 6 C3.36 6 0.72 6 -2 6 C-1.125 1.125 -1.125 1.125 0 0 Z " fill="#FAFAF9" transform="translate(151,149)"/>
<path d="M0 0 C5.75 0.875 5.75 0.875 8 2 C8 2.66 8 3.32 8 4 C8.66 4 9.32 4 10 4 C10 5.65 10 7.3 10 9 C8.2925002 7.71937515 6.62626404 6.38232443 5 5 C5 4.34 5 3.68 5 3 C2.525 2.01 2.525 2.01 0 1 C0 0.67 0 0.34 0 0 Z " fill="#D8E4F1" transform="translate(216,78)"/>
<path d="M0 0 C0.99 0 1.98 0 3 0 C3 1.32 3 2.64 3 4 C3.66 4.33 4.32 4.66 5 5 C4.34 5 3.68 5 3 5 C3 5.66 3 6.32 3 7 C1.35 7.33 -0.3 7.66 -2 8 C-1.34 5.36 -0.68 2.72 0 0 Z " fill="#EB5C34" transform="translate(37,67)"/>
<path d="M0 0 C2.1519437 3.22791555 2.20086443 4.28400809 2 8 C0.35 7.67 -1.3 7.34 -3 7 C-3 5.02 -3 3.04 -3 1 C-2.01 0.67 -1.02 0.34 0 0 Z " fill="#FBFAFC" transform="translate(3,136)"/>
<path d="M0 0 C0.33 0.66 0.66 1.32 1 2 C1.99 1.67 2.98 1.34 4 1 C5 2 5 2 5.0625 4.5625 C5.041875 5.366875 5.02125 6.17125 5 7 C4.01 7.33 3.02 7.66 2 8 C1.34 7.67 0.68 7.34 0 7 C-1.26229508 2.52459016 -1.26229508 2.52459016 0 0 Z " fill="#FBFAFA" transform="translate(193,117)"/>
<path d="M0 0 C0.66 0.66 1.32 1.32 2 2 C1.34 3.32 0.68 4.64 0 6 C0.99 5.67 1.98 5.34 3 5 C3 5.66 3 6.32 3 7 C1.02 7.99 1.02 7.99 -1 9 C-2.5625 7.75 -2.5625 7.75 -4 6 C-3.875 3.9375 -3.875 3.9375 -3 2 C-2.01 1.34 -1.02 0.68 0 0 Z " fill="#DF4938" transform="translate(173,33)"/>
<path d="M0 0 C1.98 0 3.96 0 6 0 C6 1.65 6 3.3 6 5 C4.02 5.33 2.04 5.66 0 6 C0 4.02 0 2.04 0 0 Z " fill="#ECECEC" transform="translate(118,0)"/>
<path d="M0 0 C2.64 0 5.28 0 8 0 C8 1.32 8 2.64 8 4 C5.69 4 3.38 4 1 4 C0.67 2.68 0.34 1.36 0 0 Z " fill="#EDEEEE" transform="translate(104,199)"/>
<path d="M0 0 C1.65 0 3.3 0 5 0 C5 1.65 5 3.3 5 5 C3.35 5.33 1.7 5.66 0 6 C0 4.02 0 2.04 0 0 Z " fill="#EBEBEB" transform="translate(181,137)"/>
<path d="M0 0 C2.42130331 3.63195496 2.21022785 5.38349348 2.125 9.6875 C2.10695312 10.86699219 2.08890625 12.04648438 2.0703125 13.26171875 C2.03550781 14.61716797 2.03550781 14.61716797 2 16 C0.03103546 13.04655319 -0.33984715 11.94214163 -0.6875 8.5625 C-0.77386719 7.80066406 -0.86023438 7.03882812 -0.94921875 6.25390625 C-1.00072363 3.96788208 -0.66016176 2.17903015 0 0 Z " fill="#D8E4EF" transform="translate(198,120)"/>
<path d="M0 0 C1.65 0 3.3 0 5 0 C3.68 3.3 2.36 6.6 1 10 C0 6 0 6 1 4 C0.01 4 -0.98 4 -2 4 C-1.34 2.68 -0.68 1.36 0 0 Z " fill="#F1EADA" transform="translate(9,100)"/>
<path d="M0 0 C0.33 0 0.66 0 1 0 C0.67 3.63 0.34 7.26 0 11 C-0.66 11 -1.32 11 -2 11 C-2.12375 10.360625 -2.2475 9.72125 -2.375 9.0625 C-2.58125 8.381875 -2.7875 7.70125 -3 7 C-3.66 6.67 -4.32 6.34 -5 6 C-3.35830472 3.97945196 -1.69088222 1.97956942 0 0 Z " fill="#E84D40" transform="translate(55,37)"/>
<path d="M0 0 C1.98 0.495 1.98 0.495 4 1 C4 1.66 4 2.32 4 3 C5.98 2.67 7.96 2.34 10 2 C10 2.66 10 3.32 10 4 C9.34 4 8.68 4 8 4 C7.67 4.99 7.34 5.98 7 7 C4.36 5.35 1.72 3.7 -1 2 C-0.67 1.34 -0.34 0.68 0 0 Z " fill="#F1E4E2" transform="translate(169,17)"/>
<path d="M0 0 C2.64 0 5.28 0 8 0 C5.63456284 2.36543716 3.42932795 3.27541323 0.375 4.625 C-0.62789063 5.07101563 -1.63078125 5.51703125 -2.6640625 5.9765625 C-3.43492188 6.31429688 -4.20578125 6.65203125 -5 7 C-5.33 6.34 -5.66 5.68 -6 5 C-5.01 5 -4.02 5 -3 5 C-3 4.01 -3 3.02 -3 2 C-2.01 2 -1.02 2 0 2 C0 1.34 0 0.68 0 0 Z " fill="#F2E7DE" transform="translate(80,14)"/>
<path d="M0 0 C1.67542976 0.28604898 3.34385343 0.61781233 5 1 C5 2.65 5 4.3 5 6 C3.02 6 1.04 6 -1 6 C-1.042721 4.33388095 -1.04063832 2.66617115 -1 1 C-0.67 0.67 -0.34 0.34 0 0 Z " fill="#FCFBFA" transform="translate(187,25)"/>
<path d="M0 0 C1.32 0 2.64 0 4 0 C4 1.65 4 3.3 4 5 C2.35 5.33 0.7 5.66 -1 6 C-1.042721 4.33388095 -1.04063832 2.66617115 -1 1 C-0.67 0.67 -0.34 0.34 0 0 Z " fill="#FCFCFC" transform="translate(14,25)"/>
<path d="M0 0 C0.99 0 1.98 0 3 0 C3.38218767 1.65614657 3.71395102 3.32457024 4 5 C3 6 3 6 0.4375 6.0625 C-0.7690625 6.0315625 -0.7690625 6.0315625 -2 6 C-1.125 1.125 -1.125 1.125 0 0 Z " fill="#FDFDFD" transform="translate(195,19)"/>
<path d="M0 0 C0.33 0.66 0.66 1.32 1 2 C1.66 2.33 2.32 2.66 3 3 C2.38125 3.2475 1.7625 3.495 1.125 3.75 C-1.35068687 5.20628639 -1.95125002 6.37812506 -3 9 C-5 8 -5 8 -6 5 C-4.02 3.35 -2.04 1.7 0 0 Z " fill="#F8BF22" transform="translate(33,76)"/>
<path d="M0 0 C2.35953094 2.35953094 2.49141413 3.77895617 3 7 C2.34 7 1.68 7 1 7 C0.67 8.32 0.34 9.64 0 11 C-1.56633048 8.51229865 -2.04100928 7.34447796 -1.6875 4.375 C-1 2 -1 2 0 0 Z " fill="#E1EBEF" transform="translate(206,49)"/>
<path d="M0 0 C1.98 0 3.96 0 6 0 C6 0.66 6 1.32 6 2 C4.68 1.67 3.36 1.34 2 1 C3.25541557 3.51083114 4.50063488 3.87125446 7 5 C5.35 5.66 3.7 6.32 2 7 C2 6.01 2 5.02 2 4 C1.34 4 0.68 4 0 4 C0 2.68 0 1.36 0 0 Z " fill="#4B8AEE" transform="translate(210,177)"/>
<path d="M0 0 C-0.33 0.99 -0.66 1.98 -1 3 C-5.01804691 3.84098656 -8.01803543 4.05404945 -12 3 C-12 2.67 -12 2.34 -12 2 C-7.8803623 0.70756464 -4.33168317 -0.26252625 0 0 Z " fill="#4D8BF7" transform="translate(191,152)"/>
<path d="M0 0 C0.99 0 1.98 0 3 0 C3 2.31 3 4.62 3 7 C1.68 7 0.36 7 -1 7 C-1.04254356 5.00045254 -1.04080783 2.99958364 -1 1 C-0.67 0.67 -0.34 0.34 0 0 Z " fill="#EDEDEC" transform="translate(245,124)"/>
<path d="M0 0 C0.99 0.33 1.98 0.66 3 1 C3 2.65 3 4.3 3 6 C1.35 6.33 -0.3 6.66 -2 7 C-1.125 1.125 -1.125 1.125 0 0 Z " fill="#FBF6E8" transform="translate(53,112)"/>
<path d="M0 0 C0.33 0.66 0.66 1.32 1 2 C1.66 2 2.32 2 3 2 C4.06775224 3.96466413 5.06553465 5.96855359 6 8 C5.67 8.66 5.34 9.32 5 10 C2.69 7.69 0.38 5.38 -2 3 C-1.34 2.01 -0.68 1.02 0 0 Z " fill="#477EE0" transform="translate(158,56)"/>
<path d="M0 0 C1.65 0 3.3 0 5 0 C3.60667426 3.36720387 2.0210714 4.9859524 -1 7 C-2 4 -2 4 -1.0625 1.8125 C-0.5365625 0.9153125 -0.5365625 0.9153125 0 0 Z " fill="#F4F3EE" transform="translate(57,29)"/>
<path d="M0 0 C0 1.32 0 2.64 0 4 C-2.31 4 -4.62 4 -7 4 C-7 3.01 -7 2.02 -7 1 C-4 0 -4 0 0 0 Z " fill="#EEEDF0" transform="translate(199,199)"/>
<path d="M0 0 C2.31 0 4.62 0 7 0 C7 1.32 7 2.64 7 4 C5.02 4 3.04 4 1 4 C0.67 2.68 0.34 1.36 0 0 Z " fill="#EDEDED" transform="translate(241,199)"/>
<path d="M0 0 C0.99 0.33 1.98 0.66 3 1 C3.33 1.99 3.66 2.98 4 4 C0.25 7 0.25 7 -2 7 C-2.33 6.01 -2.66 5.02 -3 4 C-2.01 4 -1.02 4 0 4 C0 2.68 0 1.36 0 0 Z " fill="#FABE16" transform="translate(26,169)"/>
<path d="M0 0 C1.32 0 2.64 0 4 0 C4 1.65 4 3.3 4 5 C2.68 5.33 1.36 5.66 0 6 C-0.38218767 4.34385343 -0.71395102 2.67542976 -1 1 C-0.67 0.67 -0.34 0.34 0 0 Z " fill="#FBFBFB" transform="translate(8,156)"/>
<path d="M0 0 C0.33 1.65 0.66 3.3 1 5 C-0.98 5 -2.96 5 -5 5 C-5 3.68 -5 2.36 -5 1 C-3 0 -3 0 0 0 Z " fill="#ECECED" transform="translate(173,150)"/>
<path d="M0 0 C1.9375 0.3125 1.9375 0.3125 4 1 C4.33 1.99 4.66 2.98 5 4 C4.01 4.495 4.01 4.495 3 5 C2.67 4.67 2.34 4.34 2 4 C2 4.66 2 5.32 2 6 C1.01 6.33 0.02 6.66 -1 7 C-1.66 6.01 -2.32 5.02 -3 4 C-2.34 4 -1.68 4 -1 4 C-0.67 2.68 -0.34 1.36 0 0 Z " fill="#EDEBE9" transform="translate(125,81)"/>
<path d="M0 0 C0.66 0.33 1.32 0.66 2 1 C2 2.32 2 3.64 2 5 C2.99 5.66 3.98 6.32 5 7 C4.01 7 3.02 7 2 7 C2 7.66 2 8.32 2 9 C1.34 9 0.68 9 0 9 C0 8.34 0 7.68 0 7 C-0.66 7 -1.32 7 -2 7 C-1.125 2.25 -1.125 2.25 0 0 Z " fill="#E74E3C" transform="translate(40,60)"/>
<path d="M0 0 C1.23556641 0.01740234 1.23556641 0.01740234 2.49609375 0.03515625 C3.32238281 0.04417969 4.14867188 0.05320313 5 0.0625 C5.63808594 0.07410156 6.27617188 0.08570313 6.93359375 0.09765625 C6.93359375 0.75765625 6.93359375 1.41765625 6.93359375 2.09765625 C4.17109339 3.47890643 1.98628276 3.28844931 -1.06640625 3.09765625 C-1.72640625 2.43765625 -2.38640625 1.77765625 -3.06640625 1.09765625 C-2.06640625 0.09765625 -2.06640625 0.09765625 0 0 Z " fill="#F7F6FB" transform="translate(111.06640625,49.90234375)"/>
<path d="M0 0 C0.99 0.33 1.98 0.66 3 1 C3.33 1.99 3.66 2.98 4 4 C0.7 4.33 -2.6 4.66 -6 5 C-3 2 -3 2 0 0 Z " fill="#EEE3DB" transform="translate(105,5)"/>
<path d="M0 0 C1.98 0 3.96 0 6 0 C6 1.32 6 2.64 6 4 C4.02 4 2.04 4 0 4 C0 2.68 0 1.36 0 0 Z " fill="#EDEDED" transform="translate(205,199)"/>
<path d="M0 0 C1.98 0 3.96 0 6 0 C6.33 1.32 6.66 2.64 7 4 C5.02 4 3.04 4 1 4 C0.67 2.68 0.34 1.36 0 0 Z " fill="#FCFDFD" transform="translate(173,199)"/>
<path d="M0 0 C1.98 0 3.96 0 6 0 C6 1.32 6 2.64 6 4 C4.02 4 2.04 4 0 4 C0 2.68 0 1.36 0 0 Z " fill="#ECEDEC" transform="translate(81,199)"/>
<path d="M0 0 C2.31 0 4.62 0 7 0 C7 0.99 7 1.98 7 3 C5.35 3.66 3.7 4.32 2 5 C2 4.01 2 3.02 2 2 C1.34 2 0.68 2 0 2 C0 1.34 0 0.68 0 0 Z " fill="#EFEBE1" transform="translate(25,181)"/>
<path d="M0 0 C0 2.31 0 4.62 0 7 C-3 6 -3 6 -5 4 C-5 3.01 -5 2.02 -5 1 C-1.125 0 -1.125 0 0 0 Z " fill="#FAFAFC" transform="translate(56,136)"/>
<path d="M0 0 C0.66 0.33 1.32 0.66 2 1 C2 2.65 2 4.3 2 6 C0.35 6 -1.3 6 -3 6 C-3.33 5.01 -3.66 4.02 -4 3 C-2.68 2.01 -1.36 1.02 0 0 Z " fill="#FCFBFB" transform="translate(110,106)"/>
<path d="M0 0 C1.98 0 3.96 0 6 0 C6.33 0.99 6.66 1.98 7 3 C7.66 3.33 8.32 3.66 9 4 C8.67 4.99 8.34 5.98 8 7 C6.66382648 6.02471263 5.3311249 5.04466681 4 4.0625 C3.2575 3.51722656 2.515 2.97195312 1.75 2.41015625 C1.1725 1.94480469 0.595 1.47945313 0 1 C0 0.67 0 0.34 0 0 Z " fill="#F8EFD6" transform="translate(114,78)"/>
<path d="M0 0 C0.99 0.495 0.99 0.495 2 1 C2 1.66 2 2.32 2 3 C2.66 3 3.32 3 4 3 C4 2.34 4 1.68 4 1 C4.99 1.33 5.98 1.66 7 2 C7 2.66 7 3.32 7 4 C7.99 4.33 8.98 4.66 10 5 C8.02 5.99 8.02 5.99 6 7 C6 6.01 6 5.02 6 4 C4.02 4 2.04 4 0 4 C0 2.68 0 1.36 0 0 Z " fill="#ECEBE6" transform="translate(25,71)"/>
<path d="M0 0 C0 3 0 3 -2 6 C-2.66 6 -3.32 6 -4 6 C-4 6.66 -4 7.32 -4 8 C-5.65 8.33 -7.3 8.66 -9 9 C-6.21000549 5.51250686 -3.74764169 2.49842779 0 0 Z " fill="#F4E8E0" transform="translate(95,56)"/>
<path d="M0 0 C0.33 1.32 0.66 2.64 1 4 C1.99 4 2.98 4 4 4 C4 4.99 4 5.98 4 7 C4.66 7 5.32 7 6 7 C5.67 7.66 5.34 8.32 5 9 C1.65001479 7.88333826 1.20659778 7.25305075 -0.6875 4.4375 C-1.12449219 3.79683594 -1.56148437 3.15617187 -2.01171875 2.49609375 C-2.50091797 1.75552734 -2.50091797 1.75552734 -3 1 C-2.01 0.67 -1.02 0.34 0 0 Z " fill="#D7E6ED" transform="translate(195,37)"/>
<path d="M0 0 C2.64 0.33 5.28 0.66 8 1 C7.67 1.99 7.34 2.98 7 4 C7.66 4 8.32 4 9 4 C8.67 4.99 8.34 5.98 8 7 C6.66382648 6.02471263 5.3311249 5.04466681 4 4.0625 C3.2575 3.51722656 2.515 2.97195312 1.75 2.41015625 C1.1725 1.94480469 0.595 1.47945312 0 1 C0 0.67 0 0.34 0 0 Z " fill="#D9E4EC" transform="translate(184,30)"/>
<path d="M0 0 C1.65 0.33 3.3 0.66 5 1 C5 1.99 5 2.98 5 4 C2.69 4 0.38 4 -2 4 C-1.34 2.68 -0.68 1.36 0 0 Z " fill="#FBFBFC" transform="translate(163,199)"/>
<path d="M0 0 C1.65 0 3.3 0 5 0 C5.33 1.32 5.66 2.64 6 4 C4.02 4 2.04 4 0 4 C0 2.68 0 1.36 0 0 Z " fill="#FCFDFD" transform="translate(112,199)"/>
<path d="M0 0 C2.475 0.495 2.475 0.495 5 1 C5.33 2.32 5.66 3.64 6 5 C4.02 5 2.04 5 0 5 C0 3.35 0 1.7 0 0 Z " fill="#FAFCFC" transform="translate(112,149)"/>
<path d="M0 0 C1.9375 0.3125 1.9375 0.3125 4 1 C4.33 1.99 4.66 2.98 5 4 C4.34 4.66 3.68 5.32 3 6 C2.01 6 1.02 6 0 6 C0 4.02 0 2.04 0 0 Z " fill="#ECECEC" transform="translate(69,137)"/>
<path d="M0 0 C0.99 0.33 1.98 0.66 3 1 C3 1.66 3 2.32 3 3 C3.66 3 4.32 3 5 3 C5 4.98 5 6.96 5 9 C4.34 8.34 3.68 7.68 3 7 C2.01 7 1.02 7 0 7 C0 4.69 0 2.38 0 0 Z " fill="#ECEFE9" transform="translate(0,130)"/>
<path d="M0 0 C1.125 3.75 1.125 3.75 0 6 C-1.65 6 -3.3 6 -5 6 C-5 5.01 -5 4.02 -5 3 C-2.5 1.3125 -2.5 1.3125 0 0 Z " fill="#FAF9FA" transform="translate(105,112)"/>
<path d="M0 0 C2.5 1.8125 2.5 1.8125 5 4 C5 4.99 5 5.98 5 7 C3.02 7.99 3.02 7.99 1 9 C0.67 8.01 0.34 7.02 0 6 C0.66 5.34 1.32 4.68 2 4 C1.01 3.34 0.02 2.68 -1 2 C-0.67 1.34 -0.34 0.68 0 0 Z " fill="#F4C222" transform="translate(120,84)"/>
<path d="M0 0 C1.5 1.375 1.5 1.375 3 3 C3 3.66 3 4.32 3 5 C1.35 5.33 -0.3 5.66 -2 6 C-2.66 5.01 -3.32 4.02 -4 3 C-2.68 2.01 -1.36 1.02 0 0 Z " fill="#E7EAEA" transform="translate(165,69)"/>
<path d="M0 0 C0.66 0 1.32 0 2 0 C2.66 1.65 3.32 3.3 4 5 C2.35 5.33 0.7 5.66 -1 6 C-1.66 5.01 -2.32 4.02 -3 3 C-2.34 3 -1.68 3 -1 3 C-0.67 2.01 -0.34 1.02 0 0 Z " fill="#FBFBFB" transform="translate(102,62)"/>
<path d="M0 0 C1.65 0.33 3.3 0.66 5 1 C5 1.99 5 2.98 5 4 C3.02 4 1.04 4 -1 4 C-0.67 2.68 -0.34 1.36 0 0 Z " fill="#FCFCFC" transform="translate(138,199)"/>
<path d="M0 0 C1.65 0.33 3.3 0.66 5 1 C5 1.99 5 2.98 5 4 C3.02 4 1.04 4 -1 4 C-0.67 2.68 -0.34 1.36 0 0 Z " fill="#FDFDFD" transform="translate(237,199)"/>
<path d="M0 0 C1.65 0.33 3.3 0.66 5 1 C5 1.99 5 2.98 5 4 C3.02 4 1.04 4 -1 4 C-0.67 2.68 -0.34 1.36 0 0 Z " fill="#EDEDED" transform="translate(156,199)"/>
<path d="M0 0 C1.65 0.33 3.3 0.66 5 1 C5 1.99 5 2.98 5 4 C3.02 4 1.04 4 -1 4 C-0.67 2.68 -0.34 1.36 0 0 Z " fill="#FDFDFD" transform="translate(26,199)"/>
<path d="M0 0 C2.97 0.495 2.97 0.495 6 1 C6 1.99 6 2.98 6 4 C4.02 4 2.04 4 0 4 C0 2.68 0 1.36 0 0 Z " fill="#FDFDFD" transform="translate(0,199)"/>
<path d="M0 0 C0.33 0 0.66 0 1 0 C1.25 5.625 1.25 5.625 -1 9 C-1.99 9 -2.98 9 -4 9 C-2.80100302 5.9168649 -1.52299523 2.93720508 0 0 Z " fill="#E0EAEE" transform="translate(234,159)"/>
<path d="M0 0 C0.99 0 1.98 0 3 0 C3 0.66 3 1.32 3 2 C3.99 2.33 4.98 2.66 6 3 C5.67 3.66 5.34 4.32 5 5 C3.35 5 1.7 5 0 5 C0 3.35 0 1.7 0 0 Z " fill="#EDEEED" transform="translate(131,150)"/>
<path d="M0 0 C0.33 1.98 0.66 3.96 1 6 C-0.65 6 -2.3 6 -4 6 C-4 4.35 -4 2.7 -4 1 C-2 0 -2 0 0 0 Z " fill="#ECEDE9" transform="translate(85,149)"/>
<path d="M0 0 C0 0.99 0 1.98 0 3 C-1.98 3 -3.96 3 -6 3 C-6 2.01 -6 1.02 -6 0 C-3.50907189 -1.24546405 -2.58919267 -0.7767578 0 0 Z " fill="#FDFDFD" transform="translate(217,200)"/>
<path d="M0 0 C1.65 0.33 3.3 0.66 5 1 C5 1.99 5 2.98 5 4 C3.02 4 1.04 4 -1 4 C-0.67 2.68 -0.34 1.36 0 0 Z " fill="#FDFDFD" transform="translate(88,199)"/>
<path d="M0 0 C0 0.99 0 1.98 0 3 C-1.98 3 -3.96 3 -6 3 C-6 2.01 -6 1.02 -6 0 C-3.50907189 -1.24546405 -2.58919267 -0.7767578 0 0 Z " fill="#FCFCFC" transform="translate(81,200)"/>
<path d="M0 0 C0.33 0.66 0.66 1.32 1 2 C2.97888961 2.72693904 4.97954558 3.39816251 7 4 C6.01 4.99 5.02 5.98 4 7 C4 6.34 4 5.68 4 5 C3.01 5.33 2.02 5.66 1 6 C1 5.34 1 4.68 1 4 C0.34 4 -0.32 4 -1 4 C-0.67 2.68 -0.34 1.36 0 0 Z " fill="#F3BC18" transform="translate(55,148)"/>
<path d="M0 0 C1.98 0 3.96 0 6 0 C5.67 1.32 5.34 2.64 5 4 C3.35 4 1.7 4 0 4 C0 2.68 0 1.36 0 0 Z " fill="#FCFCF7" transform="translate(106,69)"/>
<path d="M0 0 C2 1 2 1 5 3 C5 3.66 5 4.32 5 5 C3.02 5.33 1.04 5.66 -1 6 C-0.34 5.34 0.32 4.68 1 4 C-0.32 3.01 -1.64 2.02 -3 1 C-2.01 0.67 -1.02 0.34 0 0 Z " fill="#F1E1DE" transform="translate(107,50)"/>
<path d="M0 0 C0.66 0.33 1.32 0.66 2 1 C2 1.66 2 2.32 2 3 C1.34 3 0.68 3 0 3 C-0.33 4.32 -0.66 5.64 -1 7 C-2.32 7 -3.64 7 -5 7 C-5 6.34 -5 5.68 -5 5 C-4.01 5 -3.02 5 -2 5 C-1.7834375 4.0409375 -1.7834375 4.0409375 -1.5625 3.0625 C-1 1 -1 1 0 0 Z " fill="#ECECEC" transform="translate(223,11)"/>
<path d="M0 0 C1.98 0 3.96 0 6 0 C5.67 2.31 5.34 4.62 5 7 C4.01 6.34 3.02 5.68 2 5 C2 4.01 2 3.02 2 2 C1.34 2 0.68 2 0 2 C0 1.34 0 0.68 0 0 Z " fill="#F6BE22" transform="translate(14,160)"/>
<path d="M0 0 C0.66 0.33 1.32 0.66 2 1 C1.67 1.99 1.34 2.98 1 4 C0.01 4.33 -0.98 4.66 -2 5 C-2.99 6.485 -2.99 6.485 -4 8 C-4.66 7.34 -5.32 6.68 -6 6 C-4.02 4.02 -2.04 2.04 0 0 Z " fill="#537EE0" transform="translate(174,40)"/>
<path d="M0 0 C1.32 0.33 2.64 0.66 4 1 C3.01 1.33 2.02 1.66 1 2 C1.33 2.99 1.66 3.98 2 5 C1.01 5.99 0.02 6.98 -1 8 C-2 6 -2 6 -1.0625 2.875 C-0.5365625 1.451875 -0.5365625 1.451875 0 0 Z " fill="#EDEDED" transform="translate(218,25)"/>
<path d="M0 0 C2.475 0.495 2.475 0.495 5 1 C5 1.99 5 2.98 5 4 C3.35 4 1.7 4 0 4 C0 2.68 0 1.36 0 0 Z " fill="#FCFDFD" transform="translate(100,199)"/>
<path d="M0 0 C-0.33 0.99 -0.66 1.98 -1 3 C-3.64 3 -6.28 3 -9 3 C-6.01800145 0.01800145 -4.21244839 0 0 0 Z " fill="#E5EDF9" transform="translate(205,190)"/>
<path d="M0 0 C0.66 0.99 1.32 1.98 2 3 C-1 5 -1 5 -3 5 C-3.33 5.66 -3.66 6.32 -4 7 C-4.66 7 -5.32 7 -6 7 C-5.25 5.0625 -5.25 5.0625 -4 3 C-1.875 2.25 -1.875 2.25 0 2 C0 1.34 0 0.68 0 0 Z " fill="#4C8CF9" transform="translate(225,169)"/>
<path d="M0 0 C1.98 0 3.96 0 6 0 C5.67 1.32 5.34 2.64 5 4 C3.35 3.67 1.7 3.34 0 3 C0 2.01 0 1.02 0 0 Z " fill="#FAFBFA" transform="translate(87,114)"/>
<path d="M0 0 C0.66 0 1.32 0 2 0 C2.66 2.64 3.32 5.28 4 8 C3.01 8.495 3.01 8.495 2 9 C0.50178941 5.62902617 0 3.79557881 0 0 Z " fill="#5D8EF7" transform="translate(235,104)"/>
<path d="M0 0 C1.65 0 3.3 0 5 0 C5 1.65 5 3.3 5 5 C3.68 5.33 2.36 5.66 1 6 C1.66 4.68 2.32 3.36 3 2 C2.01 1.67 1.02 1.34 0 1 C0 0.67 0 0.34 0 0 Z " fill="#EBEBEB" transform="translate(138,81)"/>
<path d="M0 0 C0.66 0.33 1.32 0.66 2 1 C1.67 1.33 1.34 1.66 1 2 C1.66 2.66 2.32 3.32 3 4 C-0.63 4 -4.26 4 -8 4 C-5.31143836 2.20762558 -3.0466145 1.01553817 0 0 Z " fill="#F8AD12" transform="translate(50,67)"/>
<path d="M0 0 C1.98 0.495 1.98 0.495 4 1 C4 1.99 4 2.98 4 4 C2.35 4 0.7 4 -1 4 C-0.67 2.68 -0.34 1.36 0 0 Z " fill="#FDFDFD" transform="translate(39,199)"/>
<path d="M0 0 C1.98 0 3.96 0 6 0 C6 0.99 6 1.98 6 3 C4.02 3 2.04 3 0 3 C0 2.01 0 1.02 0 0 Z " fill="#FDFBFA" transform="translate(81,196)"/>
<path d="M0 0 C1 3 1 3 1 5 C1.99 5.33 2.98 5.66 4 6 C3.01 6.33 2.02 6.66 1 7 C0.01 6.34 -0.98 5.68 -2 5 C-1.125 1.125 -1.125 1.125 0 0 Z " fill="#EBBD17" transform="translate(31,175)"/>
<path d="M0 0 C1.98 0 3.96 0 6 0 C6 0.99 6 1.98 6 3 C4.02 3 2.04 3 0 3 C0 2.01 0 1.02 0 0 Z " fill="#FCFCF9" transform="translate(162,152)"/>
<path d="M0 0 C-2.3125 2.0625 -2.3125 2.0625 -5 4 C-5.99 3.67 -6.98 3.34 -8 3 C-7.67 2.01 -7.34 1.02 -7 0 C-4.05610218 -1.17755913 -3.10046087 -1.03348696 0 0 Z " fill="#F6C022" transform="translate(60,108)"/>
<path d="M0 0 C3.465 1.98 3.465 1.98 7 4 C6.34 4.66 5.68 5.32 5 6 C4.01 5.67 3.02 5.34 2 5 C0.8125 2.4375 0.8125 2.4375 0 0 Z " fill="#E4EAF2" transform="translate(184,106)"/>
<path d="M0 0 C0.66 0 1.32 0 2 0 C2.66 1.65 3.32 3.3 4 5 C3.01 5.33 2.02 5.66 1 6 C0.34 5.34 -0.32 4.68 -1 4 C-0.625 1.875 -0.625 1.875 0 0 Z " fill="#EBEDE5" transform="translate(237,94)"/>
<path d="M0 0 C0.66 0 1.32 0 2 0 C3.1577506 3.47325181 3.06866652 6.36067448 3 10 C0.70366176 6.55549263 0.45983515 4.06187717 0 0 Z " fill="#5085EE" transform="translate(171,77)"/>
<path d="M0 0 C1.32 0.33 2.64 0.66 4 1 C1.03 3.475 1.03 3.475 -2 6 C-2 3 -2 3 0 0 Z " fill="#D5B717" transform="translate(53,158)"/>
<path d="M0 0 C1.32 0 2.64 0 4 0 C3.67 1.65 3.34 3.3 3 5 C2.01 4.67 1.02 4.34 0 4 C0 2.68 0 1.36 0 0 Z " fill="#FBFAF8" transform="translate(44,44)"/>
<path d="M0 0 C-1.32 1.32 -2.64 2.64 -4 4 C-4.99 3.67 -5.98 3.34 -7 3 C-7 2.34 -7 1.68 -7 1 C-4.53721199 -0.231394 -2.7204945 -0.07159196 0 0 Z " fill="#FCF5F1" transform="translate(68,25)"/>
</svg>
